<mxfile host="Electron" modified="2024-08-26T09:56:30.090Z" agent="Mozilla/5.0 (Windows NT 10.0; Win64; x64) AppleWebKit/537.36 (KHTML, like Gecko) draw.io/22.1.16 Chrome/120.0.6099.109 Electron/28.1.0 Safari/537.36" etag="IeReyGpl8rlarBBjta7U" version="22.1.16" type="device">
  <diagram name="Page-1" id="vTdqYrp6KwJQV0wIb4nT">
    <mxGraphModel dx="523" dy="448" grid="1" gridSize="10" guides="1" tooltips="1" connect="1" arrows="1" fold="1" page="1" pageScale="1" pageWidth="500" pageHeight="250" math="0" shadow="0">
      <root>
        <mxCell id="0" />
        <mxCell id="1" parent="0" />
        <mxCell id="K8DeeGHu2wQ22l1EVVUL-9" style="rounded=0;orthogonalLoop=1;jettySize=auto;html=1;" edge="1" parent="1" source="K8DeeGHu2wQ22l1EVVUL-1" target="K8DeeGHu2wQ22l1EVVUL-2">
          <mxGeometry relative="1" as="geometry" />
        </mxCell>
        <mxCell id="K8DeeGHu2wQ22l1EVVUL-10" style="rounded=0;orthogonalLoop=1;jettySize=auto;html=1;" edge="1" parent="1" source="K8DeeGHu2wQ22l1EVVUL-1" target="K8DeeGHu2wQ22l1EVVUL-3">
          <mxGeometry relative="1" as="geometry" />
        </mxCell>
        <mxCell id="K8DeeGHu2wQ22l1EVVUL-1" value="1" style="ellipse;whiteSpace=wrap;html=1;aspect=fixed;fillColor=#f8cecc;strokeColor=#b85450;" vertex="1" parent="1">
          <mxGeometry x="264" y="5" width="40" height="40" as="geometry" />
        </mxCell>
        <mxCell id="K8DeeGHu2wQ22l1EVVUL-2" value="2" style="ellipse;whiteSpace=wrap;html=1;aspect=fixed;fillColor=#d5e8d4;strokeColor=#82b366;" vertex="1" parent="1">
          <mxGeometry x="224" y="55" width="40" height="40" as="geometry" />
        </mxCell>
        <mxCell id="K8DeeGHu2wQ22l1EVVUL-3" value="3" style="ellipse;whiteSpace=wrap;html=1;aspect=fixed;fillColor=#d5e8d4;strokeColor=#82b366;" vertex="1" parent="1">
          <mxGeometry x="304" y="55" width="40" height="40" as="geometry" />
        </mxCell>
        <mxCell id="K8DeeGHu2wQ22l1EVVUL-4" value="4" style="ellipse;whiteSpace=wrap;html=1;aspect=fixed;fillColor=#f8cecc;strokeColor=#b85450;" vertex="1" parent="1">
          <mxGeometry x="264" y="105" width="40" height="40" as="geometry" />
        </mxCell>
        <mxCell id="K8DeeGHu2wQ22l1EVVUL-5" value="5" style="ellipse;whiteSpace=wrap;html=1;aspect=fixed;fillColor=#f8cecc;strokeColor=#b85450;" vertex="1" parent="1">
          <mxGeometry x="180" y="105" width="40" height="40" as="geometry" />
        </mxCell>
        <mxCell id="K8DeeGHu2wQ22l1EVVUL-6" value="6" style="ellipse;whiteSpace=wrap;html=1;aspect=fixed;fillColor=#d5e8d4;strokeColor=#82b366;" vertex="1" parent="1">
          <mxGeometry x="140" y="155" width="40" height="40" as="geometry" />
        </mxCell>
        <mxCell id="K8DeeGHu2wQ22l1EVVUL-7" value="8" style="ellipse;whiteSpace=wrap;html=1;aspect=fixed;fillColor=#d5e8d4;strokeColor=#82b366;" vertex="1" parent="1">
          <mxGeometry x="220" y="155" width="40" height="40" as="geometry" />
        </mxCell>
        <mxCell id="K8DeeGHu2wQ22l1EVVUL-8" value="7" style="ellipse;whiteSpace=wrap;html=1;aspect=fixed;fillColor=#f8cecc;strokeColor=#b85450;" vertex="1" parent="1">
          <mxGeometry x="180" y="205" width="40" height="40" as="geometry" />
        </mxCell>
        <mxCell id="K8DeeGHu2wQ22l1EVVUL-11" style="rounded=0;orthogonalLoop=1;jettySize=auto;html=1;" edge="1" parent="1" source="K8DeeGHu2wQ22l1EVVUL-2" target="K8DeeGHu2wQ22l1EVVUL-5">
          <mxGeometry relative="1" as="geometry">
            <mxPoint x="282" y="51" as="sourcePoint" />
            <mxPoint x="267" y="69" as="targetPoint" />
          </mxGeometry>
        </mxCell>
        <mxCell id="K8DeeGHu2wQ22l1EVVUL-12" style="rounded=0;orthogonalLoop=1;jettySize=auto;html=1;" edge="1" parent="1" source="K8DeeGHu2wQ22l1EVVUL-3" target="K8DeeGHu2wQ22l1EVVUL-4">
          <mxGeometry relative="1" as="geometry">
            <mxPoint x="292" y="61" as="sourcePoint" />
            <mxPoint x="277" y="79" as="targetPoint" />
          </mxGeometry>
        </mxCell>
        <mxCell id="K8DeeGHu2wQ22l1EVVUL-13" style="rounded=0;orthogonalLoop=1;jettySize=auto;html=1;" edge="1" parent="1" source="K8DeeGHu2wQ22l1EVVUL-5" target="K8DeeGHu2wQ22l1EVVUL-6">
          <mxGeometry relative="1" as="geometry">
            <mxPoint x="302" y="71" as="sourcePoint" />
            <mxPoint x="287" y="89" as="targetPoint" />
          </mxGeometry>
        </mxCell>
        <mxCell id="K8DeeGHu2wQ22l1EVVUL-14" style="rounded=0;orthogonalLoop=1;jettySize=auto;html=1;" edge="1" parent="1" source="K8DeeGHu2wQ22l1EVVUL-5" target="K8DeeGHu2wQ22l1EVVUL-7">
          <mxGeometry relative="1" as="geometry">
            <mxPoint x="312" y="81" as="sourcePoint" />
            <mxPoint x="297" y="99" as="targetPoint" />
          </mxGeometry>
        </mxCell>
        <mxCell id="K8DeeGHu2wQ22l1EVVUL-15" style="rounded=0;orthogonalLoop=1;jettySize=auto;html=1;" edge="1" parent="1" source="K8DeeGHu2wQ22l1EVVUL-6" target="K8DeeGHu2wQ22l1EVVUL-8">
          <mxGeometry relative="1" as="geometry">
            <mxPoint x="322" y="91" as="sourcePoint" />
            <mxPoint x="307" y="109" as="targetPoint" />
          </mxGeometry>
        </mxCell>
      </root>
    </mxGraphModel>
  </diagram>
</mxfile>
